<svg width="335" height="335" viewBox="0 0 335 335" fill="none" xmlns="http://www.w3.org/2000/svg">
<g clip-path="url(#clip0_573_2337)">
<g filter="url(#filter0_f_573_2337)">
<ellipse cx="94.7897" cy="210.517" rx="48.3466" ry="7.99432" fill="#456D82" fill-opacity="0.15"/>
</g>
<path fill-rule="evenodd" clip-rule="evenodd" d="M334.916 13.9863C334.916 16.9455 334.916 19.9046 334.916 22.8638C319.284 22.8638 303.649 22.8638 288.016 22.8638C287.961 25.5731 288.016 28.2531 288.184 30.9038C288.184 34.198 288.184 37.4921 288.184 40.7863C288.184 41.9588 288.184 43.1313 288.184 44.3038C288.184 45.6996 288.184 47.0955 288.184 48.4913C286.956 48.4913 285.727 48.4913 284.499 48.4913C284.499 47.0955 284.499 45.6996 284.499 44.3038C284.499 39.8371 284.499 35.3705 284.499 30.9038C284.499 28.2238 284.499 25.5438 284.499 22.8638C271.434 22.8638 258.369 22.8638 245.304 22.8638C245.304 25.5438 245.304 28.2238 245.304 30.9038C245.304 35.4263 245.304 39.9488 245.304 44.4713C245.304 45.8113 245.304 47.1513 245.304 48.4913C244.131 48.4913 242.959 48.4913 241.786 48.4913C241.786 47.0955 241.786 45.6996 241.786 44.3038C241.786 39.8371 241.786 35.3705 241.786 30.9038C241.786 28.2238 241.786 25.5438 241.786 22.8638C195.138 22.808 148.517 22.8638 101.924 23.0313C101.757 25.626 101.701 28.2503 101.756 30.9038C101.701 36.8507 101.757 42.769 101.924 48.6588C108.74 49.9192 112.899 53.9392 114.403 60.7188C115.08 68.2473 112.009 73.5515 105.19 76.6313C99.1892 78.6411 93.9129 77.4686 89.3615 73.1138C86.183 69.3914 84.9547 65.0922 85.6764 60.2163C87.322 53.7138 91.4537 49.8613 98.0714 48.6588C98.2378 47.2377 98.2936 45.786 98.2389 44.3038C98.2389 39.8371 98.2389 35.3705 98.2389 30.9038C98.2389 28.2238 98.2389 25.5438 98.2389 22.8638C73.5607 22.8638 48.8822 22.8638 24.2039 22.8638C22.2993 22.7739 21.0431 21.8248 20.4352 20.0163C19.7927 17.0882 20.8814 15.1061 23.7014 14.0701C127.44 13.9863 231.179 13.9584 334.916 13.9863Z" fill="#414141"/>
<path fill-rule="evenodd" clip-rule="evenodd" d="M241.619 44.3037C241.674 44.3037 241.731 44.3037 241.786 44.3037C241.786 45.6995 241.786 47.0954 241.786 48.4912C234.835 48.6585 227.857 48.7143 220.849 48.6587C227.743 48.4914 234.668 48.4356 241.619 48.4912C241.619 47.0954 241.619 45.6995 241.619 44.3037Z" fill="#696066"/>
<path fill-rule="evenodd" clip-rule="evenodd" d="M284.332 44.3037C284.387 44.3037 284.444 44.3037 284.499 44.3037C284.499 45.6995 284.499 47.0954 284.499 48.4912C271.434 48.7145 258.369 48.7145 245.304 48.4912C245.304 47.1512 245.304 45.8112 245.304 44.4712C245.359 44.4712 245.416 44.4712 245.472 44.4712C245.472 45.8112 245.472 47.1512 245.472 48.4912C258.424 48.4912 271.379 48.4912 284.332 48.4912C284.332 47.0954 284.332 45.6995 284.332 44.3037Z" fill="#6A6067"/>
<path fill-rule="evenodd" clip-rule="evenodd" d="M241.786 48.4912C242.959 48.4912 244.131 48.4912 245.304 48.4912C258.369 48.7145 271.434 48.7145 284.499 48.4912C285.726 48.4912 286.956 48.4912 288.184 48.4912C296.838 48.4632 305.491 48.4912 314.146 48.575C314.501 48.7629 314.809 49.0141 315.067 49.3287C315.18 58.4295 315.18 67.5304 315.067 76.6312C314.871 77.05 314.565 77.357 314.146 77.5525C283.046 77.6642 251.948 77.6642 220.849 77.5525C220.375 77.3012 220.011 76.9382 219.76 76.4637C219.648 67.5304 219.648 58.597 219.76 49.6637C219.996 49.1764 220.358 48.8414 220.849 48.6587C227.857 48.7143 234.835 48.6585 241.786 48.4912Z" fill="#414141"/>
<path fill-rule="evenodd" clip-rule="evenodd" d="M97.9037 51.1713C105.361 50.6764 110.023 54.0264 111.89 61.2213C112.398 66.2922 110.583 70.2842 106.446 73.1976C100.6 76.2653 95.3797 75.4558 90.785 70.7688C87.3742 66.0629 87.1507 61.2054 90.115 56.1963C92.0861 53.5235 94.6824 51.8485 97.9037 51.1713Z" fill="#FBFCFC"/>
<path fill-rule="evenodd" clip-rule="evenodd" d="M99.7463 51.5063C99.9138 51.5063 100.081 51.5063 100.249 51.5063C100.249 52.5113 100.249 53.5163 100.249 54.5213C100.081 54.5213 99.9138 54.5213 99.7463 54.5213C99.7463 53.5163 99.7463 52.5113 99.7463 51.5063Z" fill="#414141"/>
<path fill-rule="evenodd" clip-rule="evenodd" d="M105.776 53.3486C105.944 53.3486 106.111 53.3486 106.279 53.3486C106.099 54.1543 105.736 54.8801 105.19 55.5261C105.038 55.8509 104.787 56.0184 104.436 56.0286C104.41 55.7987 104.438 55.5752 104.52 55.3586C104.977 54.7079 105.395 54.0379 105.776 53.3486Z" fill="#414141"/>
<path fill-rule="evenodd" clip-rule="evenodd" d="M93.7163 53.3488C93.9377 53.3203 94.1332 53.3761 94.3026 53.5163C94.596 54.0476 94.931 54.5501 95.3076 55.0238C95.4965 55.3328 95.5802 55.6678 95.5588 56.0288C95.2084 56.0186 94.9571 55.8511 94.8051 55.5263C94.2587 54.8802 93.8959 54.1544 93.7163 53.3488Z" fill="#414141"/>
<path fill-rule="evenodd" clip-rule="evenodd" d="M259.549 56.1963C259.715 57.5055 259.772 58.8455 259.716 60.2163C267.366 60.2163 275.014 60.2163 282.664 60.2163C282.664 62.6171 282.664 65.018 282.664 67.4188C275.014 67.4188 267.366 67.4188 259.716 67.4188C259.745 68.76 259.716 70.1 259.633 71.4388C257.092 68.8983 254.552 66.358 252.011 63.8175C254.557 61.2992 257.07 58.7589 259.549 56.1963Z" fill="#FBFCFC"/>
<path fill-rule="evenodd" clip-rule="evenodd" d="M90.0316 57.3687C90.9292 57.6219 91.7667 58.0129 92.5441 58.5412C92.6997 58.7403 92.7555 58.9636 92.7116 59.2112C91.8645 58.8718 91.027 58.481 90.1991 58.0387C90.0435 57.8395 89.9877 57.6162 90.0316 57.3687Z" fill="#414141"/>
<path fill-rule="evenodd" clip-rule="evenodd" d="M109.629 57.8712C110.164 57.8169 110.331 58.0122 110.131 58.4574C109.329 58.7745 108.548 59.1375 107.786 59.5462C107.354 59.3137 107.354 59.0624 107.786 58.7924C108.457 58.5685 109.071 58.2614 109.629 57.8712Z" fill="#414141"/>
<path fill-rule="evenodd" clip-rule="evenodd" d="M99.914 56.1963C100.184 58.0644 100.407 59.9627 100.584 61.8913C100.855 62.266 101.218 62.4893 101.673 62.5613C103.208 62.7328 104.744 62.9003 106.279 63.0638C104.721 63.2787 103.158 63.4462 101.589 63.5663C101.137 63.945 100.607 64.1683 99.9978 64.2363C98.7822 64.0388 98.4472 63.3688 98.9928 62.2263C99.1082 62.0827 99.2477 61.9712 99.4115 61.8913C99.6455 59.9984 99.813 58.0999 99.914 56.1963Z" fill="#414141"/>
<path fill-rule="evenodd" clip-rule="evenodd" d="M88.6912 62.5613C89.6962 62.5613 90.7012 62.5613 91.7062 62.5613C91.7062 62.7288 91.7062 62.8963 91.7062 63.0638C90.7012 63.0638 89.6962 63.0638 88.6912 63.0638C88.6912 62.8963 88.6912 62.7288 88.6912 62.5613Z" fill="#414141"/>
<path fill-rule="evenodd" clip-rule="evenodd" d="M108.289 62.5613C109.294 62.5613 110.299 62.5613 111.304 62.5613C111.304 62.7288 111.304 62.8963 111.304 63.0638C110.299 63.0638 109.294 63.0638 108.289 63.0638C108.289 62.8963 108.289 62.7288 108.289 62.5613Z" fill="#414141"/>
<path fill-rule="evenodd" clip-rule="evenodd" d="M91.8737 66.2463C92.097 66.2463 92.3204 66.2463 92.5437 66.2463C92.5804 66.4432 92.5246 66.6107 92.3762 66.7488C91.5454 67.277 90.6521 67.612 89.6962 67.7538C89.6595 67.557 89.7153 67.3895 89.8637 67.2513C90.5491 66.9086 91.2191 66.5736 91.8737 66.2463Z" fill="#414141"/>
<path fill-rule="evenodd" clip-rule="evenodd" d="M107.284 66.5813C108.155 66.849 108.992 67.2119 109.796 67.67C109.937 67.8394 109.992 68.0349 109.964 68.2563C109.087 68.0096 108.25 67.6468 107.451 67.1675C107.311 66.9982 107.255 66.8027 107.284 66.5813Z" fill="#414141"/>
<path fill-rule="evenodd" clip-rule="evenodd" d="M95.0563 69.7637C95.2238 69.7637 95.3913 69.7637 95.5588 69.7637C95.2896 70.5255 94.9267 71.2512 94.4701 71.9412C94.2841 72.1986 94.0329 72.3102 93.7163 72.2762C94.0295 71.3707 94.4763 70.5332 95.0563 69.7637Z" fill="#414141"/>
<path fill-rule="evenodd" clip-rule="evenodd" d="M104.436 69.7638C104.658 69.7353 104.853 69.7911 105.023 69.9313C105.577 70.6494 105.996 71.4309 106.279 72.2763C105.962 72.3103 105.711 72.1988 105.525 71.9413C104.983 71.3033 104.62 70.5775 104.436 69.7638Z" fill="#414141"/>
<path fill-rule="evenodd" clip-rule="evenodd" d="M99.7463 71.1038C99.9138 71.1038 100.081 71.1038 100.249 71.1038C100.249 72.1088 100.249 73.1138 100.249 74.1188C100.081 74.1188 99.9138 74.1188 99.7463 74.1188C99.7463 73.1138 99.7463 72.1088 99.7463 71.1038Z" fill="#414141"/>
<path fill-rule="evenodd" clip-rule="evenodd" d="M232.238 150.666C266.464 150.666 300.691 150.666 334.916 150.666C334.916 158.539 334.916 166.411 334.916 174.284C315.374 174.255 295.833 174.284 276.291 174.368C274.51 174.624 272.778 175.069 271.098 175.708C267.47 177.52 264.008 179.587 260.713 181.905C254.593 186.459 248.87 191.513 243.545 197.064C232.84 208.491 222.957 220.551 213.897 233.244C201.14 251.225 189.221 269.762 178.136 288.854C174.039 288.077 169.908 287.574 165.741 287.346C164.73 287.363 163.725 287.447 162.726 287.598C162.117 287.623 161.559 287.762 161.051 288.016C159.276 288.549 158.634 289.721 159.125 291.534C159.804 293.611 161.06 295.257 162.893 296.475C165.483 298.244 168.275 299.612 171.268 300.579C170.453 302.488 169.505 304.331 168.421 306.106C168.198 306.106 167.974 306.106 167.751 306.106C151.835 303.036 139.161 294.941 129.728 281.819C128.961 280.675 128.235 279.502 127.551 278.301C126.283 276.269 125.139 274.147 124.117 271.936C124.191 270.461 124.554 269.064 125.206 267.749C126.332 269.24 127.56 270.663 128.891 272.02C129.75 272.765 130.699 273.38 131.738 273.863C134.13 274.124 135.247 273.035 135.088 270.596C134.955 268.668 134.481 266.826 133.665 265.069C132.451 262.36 131.028 259.793 129.393 257.364C129.449 257.029 129.505 256.694 129.561 256.359C131.362 252.309 133.26 248.289 135.256 244.299C142.288 230.225 150.495 216.936 159.878 204.434C166.073 196.282 172.773 188.521 179.978 181.151C182.384 178.801 184.784 176.456 187.181 174.116C187.293 174.116 187.348 174.061 187.348 173.949C191.794 170.034 196.316 166.209 200.916 162.475C205.187 159.153 209.597 156.026 214.148 153.095C216.524 151.875 219.036 151.094 221.686 150.75C225.203 150.666 228.721 150.638 232.238 150.666Z" fill="#71936F"/>
<path fill-rule="evenodd" clip-rule="evenodd" d="M68.0887 161.386C68.0887 162.28 68.0887 163.173 68.0887 164.066C67.1954 164.066 66.302 164.066 65.4087 164.066C65.4087 163.173 65.4087 162.28 65.4087 161.386C66.302 161.386 67.1954 161.386 68.0887 161.386Z" fill="#414141"/>
<path fill-rule="evenodd" clip-rule="evenodd" d="M119.679 161.386C119.679 162.28 119.679 163.173 119.679 164.066C118.786 164.066 117.892 164.066 116.999 164.066C116.999 163.173 116.999 162.28 116.999 161.386C117.892 161.386 118.786 161.386 119.679 161.386Z" fill="#414141"/>
<path fill-rule="evenodd" clip-rule="evenodd" d="M65.4083 164.066C66.3016 164.066 67.195 164.066 68.0883 164.066C84.5112 164.074 100.5 164.074 116.998 164.066C117.892 164.066 118.785 164.066 119.678 164.066C121.818 164.074 123.721 164.074 125.876 164.234C125.876 165.964 125.876 167.696 125.876 169.426C123.81 169.426 121.744 169.426 119.678 169.426C118.785 169.426 117.892 169.426 116.998 169.426C100.695 169.426 84.3916 169.426 68.0883 169.426C67.195 169.426 66.3016 169.426 65.4083 169.426C63.7333 169.426 62.0583 169.426 60.3833 169.426C60.3833 167.696 60.3833 165.797 60.3833 164.066C62.051 164.074 63.5737 164.074 65.4083 164.066Z" fill="#6E6E6E"/>
<path fill-rule="evenodd" clip-rule="evenodd" d="M233.914 174.284C204.769 194.384 175.624 214.484 146.479 234.584C146.367 234.584 146.255 234.584 146.144 234.584C145.25 234.639 144.357 234.696 143.464 234.751C155.402 213.393 170.141 194.104 187.684 176.88C192.436 172.414 197.405 168.227 202.591 164.317C213.539 166.04 223.979 169.362 233.914 174.284Z" fill="#414141"/>
<path fill-rule="evenodd" clip-rule="evenodd" d="M65.4087 169.426C66.302 169.426 67.1954 169.426 68.0887 169.426C68.0887 170.264 68.0887 171.101 68.0887 171.939C67.1954 171.939 66.302 171.939 65.4087 171.939C65.4087 171.157 65.4087 170.376 65.4087 169.594C65.4087 169.538 65.4087 169.482 65.4087 169.426Z" fill="#414141"/>
<path fill-rule="evenodd" clip-rule="evenodd" d="M116.999 169.426C117.892 169.426 118.786 169.426 119.679 169.426C119.679 170.264 119.679 171.101 119.679 171.939C118.786 171.939 117.892 171.939 116.999 171.939C116.999 171.157 116.999 170.376 116.999 169.594C116.999 169.538 116.999 169.482 116.999 169.426Z" fill="#414141"/>
<path fill-rule="evenodd" clip-rule="evenodd" d="M65.4088 171.939C66.3021 171.939 67.1955 171.939 68.0888 171.939C68.1446 171.939 68.2005 171.939 68.2563 171.939C84.5038 171.939 100.751 171.939 116.999 171.939C117.892 171.939 118.786 171.939 119.679 171.939C121.659 172.106 123.669 172.161 125.709 172.106C125.709 173.836 125.709 175.568 125.709 177.299C123.699 177.299 121.689 177.299 119.679 177.299C118.786 177.299 117.892 177.299 116.999 177.299C100.696 177.299 84.3921 177.299 68.0888 177.299C67.1955 177.299 66.3021 177.299 65.4088 177.299C63.678 177.299 61.9471 177.299 60.2163 177.299C60.2163 175.511 60.2163 173.726 60.2163 171.939C61.9471 171.939 63.678 171.939 65.4088 171.939Z" fill="#6E6E6E"/>
<path fill-rule="evenodd" clip-rule="evenodd" d="M119.679 171.939C119.735 171.939 119.791 171.939 119.847 171.939C121.857 171.939 123.867 171.939 125.877 171.939C125.932 173.756 125.876 175.542 125.709 177.299C125.709 175.568 125.709 173.836 125.709 172.106C123.669 172.161 121.659 172.106 119.679 171.939Z" fill="#72727D"/>
<path fill-rule="evenodd" clip-rule="evenodd" d="M334.916 174.284C334.916 180.704 334.916 187.126 334.916 193.546C320.344 193.518 305.771 193.546 291.199 193.63C283.306 199.564 275.964 206.181 269.172 213.479C250.657 233.989 234.438 256.156 220.514 279.976C241.719 280.144 263.047 280.199 284.499 280.144C286.676 280.144 288.854 280.144 291.031 280.144C292.929 280.144 294.828 280.144 296.726 280.144C305.548 280.144 314.369 280.144 323.191 280.144C327.099 280.144 331.008 280.144 334.916 280.144C334.916 284.554 334.916 288.966 334.916 293.376C281.847 293.431 228.805 293.376 175.791 293.209C176.575 291.753 177.357 290.301 178.136 288.854C189.221 269.762 201.14 251.225 213.897 233.244C222.957 220.551 232.84 208.491 243.545 197.064C248.87 191.513 254.593 186.459 260.714 181.905C264.008 179.587 267.47 177.52 271.099 175.707C272.779 175.069 274.51 174.624 276.291 174.367C295.833 174.284 315.374 174.255 334.916 174.284Z" fill="#83AA80"/>
<path fill-rule="evenodd" clip-rule="evenodd" d="M233.914 174.284C235.185 174.887 236.413 175.557 237.599 176.294C209.241 195.72 180.933 215.206 152.676 234.751C152.564 234.751 152.453 234.751 152.341 234.751C150.389 234.629 148.435 234.572 146.479 234.584C175.624 214.484 204.769 194.384 233.914 174.284Z" fill="#A6B3BB"/>
<path fill-rule="evenodd" clip-rule="evenodd" d="M237.599 176.294C238.604 176.851 239.609 177.411 240.614 177.969C212.904 197.245 185.099 216.395 157.199 235.421C155.684 235.208 154.176 234.986 152.677 234.751C180.934 215.206 209.241 195.72 237.599 176.294Z" fill="#414141"/>
<path fill-rule="evenodd" clip-rule="evenodd" d="M65.4087 177.299C66.302 177.299 67.1954 177.299 68.0887 177.299C68.0887 179.254 68.0887 181.207 68.0887 183.161C67.1954 183.161 66.302 183.161 65.4087 183.161C65.4087 181.207 65.4087 179.254 65.4087 177.299Z" fill="#414141"/>
<path fill-rule="evenodd" clip-rule="evenodd" d="M116.999 177.299C117.892 177.299 118.786 177.299 119.679 177.299C119.679 179.254 119.679 181.207 119.679 183.161C118.786 183.161 117.892 183.161 116.999 183.161C116.999 181.207 116.999 179.254 116.999 177.299Z" fill="#414141"/>
<path fill-rule="evenodd" clip-rule="evenodd" d="M240.613 177.969C244.196 179.989 247.546 182.334 250.663 185.004C248.459 187.18 246.226 189.329 243.963 191.453C241.417 194.138 238.85 196.791 236.258 199.409C215.557 213.521 194.899 227.703 174.283 241.954C174.171 242.009 174.061 242.066 173.948 242.121C173.964 241.954 173.907 241.815 173.781 241.703C168.594 238.718 163.067 236.679 157.198 235.589C157.198 235.533 157.198 235.477 157.198 235.421C185.099 216.395 212.904 197.245 240.613 177.969Z" fill="#A6B3BB"/>
<path fill-rule="evenodd" clip-rule="evenodd" d="M65.4089 183.161C66.3021 183.161 67.1956 183.161 68.0889 183.161C84.3921 183.161 100.696 183.161 116.999 183.161C117.892 183.161 118.786 183.161 119.679 183.161C121.69 183.133 123.7 183.161 125.709 183.245C126.546 184.418 127.384 185.59 128.221 186.763C125.43 186.846 122.639 186.875 119.846 186.846C119.791 186.846 119.735 186.846 119.679 186.846C118.786 186.846 117.892 186.846 116.999 186.846C100.751 186.846 84.5039 186.846 68.2564 186.846C68.2006 186.846 68.1446 186.846 68.0889 186.846C67.1956 186.846 66.3021 186.846 65.4089 186.846C62.8399 186.875 60.2716 186.846 57.7039 186.763C58.5414 185.59 59.3789 184.418 60.2164 183.245C61.9463 183.161 63.6771 183.133 65.4089 183.161Z" fill="#6E6E6E"/>
<path fill-rule="evenodd" clip-rule="evenodd" d="M65.4087 186.846C66.302 186.846 67.1954 186.846 68.0887 186.846C68.0887 187.404 68.0887 187.963 68.0887 188.521C67.1954 188.521 66.302 188.521 65.4087 188.521C65.4087 187.963 65.4087 187.404 65.4087 186.846Z" fill="#414141"/>
<path fill-rule="evenodd" clip-rule="evenodd" d="M116.999 186.846C117.892 186.846 118.786 186.846 119.679 186.846C119.679 187.404 119.679 187.963 119.679 188.521C118.786 188.521 117.892 188.521 116.999 188.521C116.999 188.466 116.999 188.409 116.999 188.354C116.999 187.851 116.999 187.349 116.999 186.846Z" fill="#414141"/>
<path fill-rule="evenodd" clip-rule="evenodd" d="M68.0886 186.846C68.1444 186.846 68.2003 186.846 68.2561 186.846C68.2561 187.349 68.2561 187.851 68.2561 188.354C84.5036 188.354 100.751 188.354 116.999 188.354C116.999 188.409 116.999 188.466 116.999 188.521C100.695 188.521 84.3919 188.521 68.0886 188.521C68.0886 187.963 68.0886 187.404 68.0886 186.846Z" fill="#414141"/>
<path d="M122.694 192.206C121.689 191.983 120.684 191.983 119.679 192.206H122.694Z" fill="#6E6E6E"/>
<path fill-rule="evenodd" clip-rule="evenodd" d="M130.469 192.068C129.816 192.131 129.131 192.14 128.437 192.139C129.306 192.116 130.08 192.091 130.469 192.068Z" fill="#6E6E6E"/>
<path d="M68.0886 188.521H65.4086C62.8397 188.493 60.2714 188.521 57.7036 188.605C56.8204 189.627 56.0387 190.715 55.3586 191.871C56.8104 191.983 58.2619 192.094 59.7136 192.206H62.3936C63.3986 191.983 64.4036 191.983 65.4086 192.206H68.0886C84.3919 191.983 100.695 191.983 116.999 192.206H119.679C120.684 191.983 121.689 191.983 122.694 192.206H125.374C126.367 192.112 127.412 192.137 128.437 192.139C129.306 192.116 130.08 192.091 130.469 192.068C130.558 192.059 130.646 192.049 130.734 192.039C129.956 190.816 129.118 189.643 128.221 188.521H119.679H116.999H68.0886Z" fill="#6E6E6E"/>
<path d="M65.4086 192.206C64.4036 191.983 63.3986 191.983 62.3936 192.206H65.4086Z" fill="#6E6E6E"/>
<path fill-rule="evenodd" clip-rule="evenodd" d="M55.3587 191.871C56.8104 191.984 58.2619 192.094 59.7137 192.206C58.202 192.262 56.6945 192.206 55.1912 192.039C55.2119 191.937 55.2677 191.881 55.3587 191.871Z" fill="#6E6E6E"/>
<path fill-rule="evenodd" clip-rule="evenodd" d="M59.7136 192.206C60.6069 192.206 61.5003 192.206 62.3936 192.206C62.3936 199.354 62.3936 206.499 62.3936 213.646C61.5003 213.646 60.6069 213.646 59.7136 213.646C59.7136 210.519 59.7136 207.394 59.7136 204.266C59.7136 201.364 59.7136 198.459 59.7136 195.556C59.7136 194.439 59.7136 193.324 59.7136 192.206Z" fill="#414141"/>
<path fill-rule="evenodd" clip-rule="evenodd" d="M65.4087 192.206C66.302 192.206 67.1954 192.206 68.0887 192.206C68.0887 197.231 68.0887 202.256 68.0887 207.281C67.1954 207.281 66.302 207.281 65.4087 207.281C65.4087 206.276 65.4087 205.271 65.4087 204.266C65.4087 201.364 65.4087 198.459 65.4087 195.556C65.4087 194.439 65.4087 193.324 65.4087 192.206Z" fill="#414141"/>
<path fill-rule="evenodd" clip-rule="evenodd" d="M116.999 192.206C117.892 192.206 118.786 192.206 119.679 192.206C119.679 197.231 119.679 202.256 119.679 207.281C118.786 207.281 117.892 207.281 116.999 207.281C116.999 206.276 116.999 205.271 116.999 204.266C116.999 201.364 116.999 198.459 116.999 195.556C116.999 194.439 116.999 193.324 116.999 192.206Z" fill="#414141"/>
<path fill-rule="evenodd" clip-rule="evenodd" d="M122.694 192.206C123.587 192.206 124.481 192.206 125.374 192.206C125.374 199.354 125.374 206.499 125.374 213.646C124.481 213.646 123.587 213.646 122.694 213.646C122.694 210.519 122.694 207.394 122.694 204.266C122.694 201.364 122.694 198.459 122.694 195.556C122.694 194.439 122.694 193.324 122.694 192.206Z" fill="#414141"/>
<path fill-rule="evenodd" clip-rule="evenodd" d="M334.916 193.546C334.916 210.854 334.916 228.164 334.916 245.471C326.869 251.001 318.829 256.528 310.796 262.054C310.647 262.156 310.48 262.211 310.294 262.221C280.137 267.024 250.211 272.941 220.514 279.976C234.438 256.156 250.657 233.989 269.172 213.479C275.965 206.181 283.306 199.565 291.199 193.63C305.771 193.546 320.344 193.518 334.916 193.546Z" fill="#414141"/>
<path fill-rule="evenodd" clip-rule="evenodd" d="M236.259 199.409C219.73 217.408 204.99 236.726 192.039 257.364C186.962 251.205 181.042 246.069 174.284 241.954C194.9 227.703 215.557 213.521 236.259 199.409Z" fill="#414141"/>
<path fill-rule="evenodd" clip-rule="evenodd" d="M146.144 234.584C146.255 234.584 146.367 234.584 146.479 234.584C148.435 234.572 150.389 234.629 152.341 234.751C147.645 238.105 142.899 241.399 138.104 244.634C139.244 242.242 140.472 239.897 141.789 237.599C141.778 237.672 141.805 237.728 141.872 237.766C143.292 236.681 144.716 235.621 146.144 234.584Z" fill="#B0BFC9"/>
<path fill-rule="evenodd" clip-rule="evenodd" d="M146.143 234.584C144.716 235.621 143.292 236.681 141.872 237.766C141.805 237.728 141.778 237.672 141.788 237.599C142.307 236.616 142.865 235.667 143.463 234.751C144.357 234.696 145.25 234.639 146.143 234.584Z" fill="#6E6E6E"/>
<path fill-rule="evenodd" clip-rule="evenodd" d="M152.341 234.751C152.453 234.751 152.565 234.751 152.676 234.751C154.176 234.986 155.684 235.208 157.199 235.421C157.199 235.476 157.199 235.533 157.199 235.589C149.738 240.563 142.34 245.644 135.005 250.831C134.938 250.793 134.91 250.737 134.921 250.664C135.897 248.6 136.958 246.59 138.104 244.634C142.9 241.399 147.646 238.105 152.341 234.751Z" fill="#6E6E6E"/>
<path fill-rule="evenodd" clip-rule="evenodd" d="M157.199 235.589C163.067 236.679 168.594 238.718 173.781 241.703C173.907 241.815 173.964 241.954 173.949 242.121C163.564 249.324 153.179 256.526 142.794 263.729C139.11 260.493 136.263 256.64 134.251 252.171C134.436 251.635 134.66 251.133 134.921 250.664C134.91 250.738 134.938 250.793 135.005 250.831C142.34 245.644 149.738 240.564 157.199 235.589Z" fill="#B1BFCA"/>
<path fill-rule="evenodd" clip-rule="evenodd" d="M174.284 241.954C181.042 246.069 186.962 251.205 192.039 257.364C187.783 264.365 183.734 271.513 179.895 278.804C167.419 277.883 156.113 273.779 145.976 266.493C144.903 265.568 143.842 264.647 142.794 263.729C153.179 256.526 163.564 249.324 173.949 242.121C174.061 242.066 174.171 242.009 174.284 241.954Z" fill="#6E6E6E"/>
<path fill-rule="evenodd" clip-rule="evenodd" d="M334.916 245.471C334.916 246.923 334.916 248.374 334.916 249.826C329.724 253.399 324.531 256.973 319.339 260.546C319.004 260.769 318.669 260.993 318.334 261.216C318.175 261.107 317.979 261.05 317.748 261.049C315.434 261.429 313.118 261.764 310.796 262.054C318.83 256.528 326.87 251 334.916 245.471Z" fill="#A6B3BB"/>
<path fill-rule="evenodd" clip-rule="evenodd" d="M334.916 249.826C334.916 251.166 334.916 252.506 334.916 253.846C331.963 255.796 329.058 257.806 326.206 259.876C326.094 259.876 325.983 259.876 325.871 259.876C323.863 260.156 321.853 260.434 319.841 260.714C319.635 260.71 319.467 260.655 319.338 260.546C324.531 256.973 329.723 253.399 334.916 249.826Z" fill="#414141"/>
<path fill-rule="evenodd" clip-rule="evenodd" d="M334.916 253.846C334.916 255.466 334.916 257.084 334.916 258.704C332.007 259.064 329.104 259.454 326.206 259.876C329.059 257.806 331.963 255.796 334.916 253.846Z" fill="#A6B3BB"/>
<path fill-rule="evenodd" clip-rule="evenodd" d="M129.393 257.364C131.028 259.793 132.451 262.36 133.665 265.069C134.481 266.826 134.955 268.668 135.088 270.596C134.378 271.057 133.596 271.198 132.743 271.015C129.985 269.513 127.808 267.419 126.211 264.734C126.457 263.993 126.737 263.268 127.048 262.556C127.586 261.089 128.173 259.637 128.807 258.201C128.924 257.853 129.119 257.573 129.393 257.364Z" fill="#276522"/>
<path fill-rule="evenodd" clip-rule="evenodd" d="M334.917 258.704C334.917 263.171 334.917 267.637 334.917 272.104C330.948 274.702 327.041 277.382 323.192 280.144C314.369 280.144 305.549 280.144 296.727 280.144C306.442 273.389 316.157 266.632 325.872 259.876C325.984 259.876 326.094 259.876 326.207 259.876C329.104 259.454 332.007 259.064 334.917 258.704Z" fill="#B1BFCA"/>
<path fill-rule="evenodd" clip-rule="evenodd" d="M325.871 259.876C316.156 266.631 306.441 273.388 296.726 280.144C294.828 280.144 292.929 280.144 291.031 280.144C300.081 273.775 309.183 267.466 318.334 261.216C318.669 260.993 319.004 260.769 319.339 260.546C319.468 260.655 319.635 260.71 319.841 260.714C321.853 260.434 323.863 260.156 325.871 259.876Z" fill="#6E6E6E"/>
<path fill-rule="evenodd" clip-rule="evenodd" d="M318.334 261.216C309.183 267.466 300.081 273.775 291.031 280.144C288.854 280.144 286.676 280.144 284.499 280.144C293.097 274.169 301.696 268.196 310.294 262.221C310.48 262.211 310.647 262.156 310.796 262.054C313.118 261.764 315.434 261.429 317.748 261.049C317.979 261.051 318.175 261.107 318.334 261.216Z" fill="#B0BFC9"/>
<path fill-rule="evenodd" clip-rule="evenodd" d="M310.294 262.221C301.696 268.196 293.096 274.169 284.499 280.144C263.047 280.199 241.719 280.144 220.514 279.976C250.211 272.941 280.137 267.023 310.294 262.221Z" fill="#6E6E6E"/>
<path fill-rule="evenodd" clip-rule="evenodd" d="M126.211 264.734C127.808 267.419 129.986 269.512 132.744 271.015C133.597 271.197 134.378 271.057 135.089 270.596C135.247 273.035 134.131 274.124 131.739 273.862C130.699 273.38 129.75 272.765 128.891 272.02C127.56 270.663 126.332 269.239 125.206 267.749C125.206 267.636 125.206 267.526 125.206 267.414C125.508 266.507 125.843 265.615 126.211 264.734Z" fill="#235A1E"/>
<path fill-rule="evenodd" clip-rule="evenodd" d="M334.916 272.104C334.916 274.784 334.916 277.464 334.916 280.144C331.009 280.144 327.099 280.144 323.191 280.144C327.041 277.382 330.948 274.702 334.916 272.104Z" fill="#6E6E6E"/>
<path fill-rule="evenodd" clip-rule="evenodd" d="M-0.0839844 278.301C42.461 278.301 85.006 278.301 127.551 278.301C128.235 279.502 128.961 280.675 129.729 281.819C86.4577 281.819 43.1868 281.819 -0.0839844 281.819C-0.0839844 280.646 -0.0839844 279.474 -0.0839844 278.301Z" fill="#6F6F6F"/>
<path fill-rule="evenodd" clip-rule="evenodd" d="M-0.0839844 281.819C43.1868 281.819 86.4577 281.819 129.729 281.819C139.161 294.941 151.835 303.036 167.751 306.106C111.806 306.106 55.861 306.106 -0.0839844 306.106C-0.0839844 298.011 -0.0839844 289.914 -0.0839844 281.819Z" fill="#414141"/>
<path fill-rule="evenodd" clip-rule="evenodd" d="M178.136 288.854C177.357 290.301 176.575 291.753 175.791 293.209C175.65 293.266 175.595 293.378 175.623 293.544C174.789 294.989 173.952 296.441 173.111 297.899C172.999 298.011 172.888 298.121 172.776 298.234C169.702 297.199 166.855 295.72 164.233 293.795C162.936 292.778 161.959 291.522 161.302 290.026C161.108 289.37 161.025 288.7 161.051 288.016C161.559 287.762 162.117 287.623 162.726 287.597C163.725 287.447 164.73 287.363 165.741 287.346C169.908 287.574 174.039 288.076 178.136 288.854Z" fill="#276522"/>
<path fill-rule="evenodd" clip-rule="evenodd" d="M161.051 288.016C161.025 288.7 161.109 289.37 161.303 290.026C161.96 291.522 162.937 292.778 164.234 293.795C166.855 295.72 169.703 297.199 172.776 298.234C172.776 298.289 172.776 298.346 172.776 298.401C172.43 298.929 172.121 299.487 171.855 300.076C171.728 300.338 171.532 300.505 171.269 300.579C168.276 299.612 165.483 298.244 162.894 296.475C161.06 295.257 159.804 293.611 159.125 291.534C158.635 289.722 159.277 288.549 161.051 288.016Z" fill="#235A1E"/>
<path fill-rule="evenodd" clip-rule="evenodd" d="M175.791 293.209C228.805 293.376 281.847 293.432 334.916 293.376C334.916 293.432 334.916 293.488 334.916 293.544C281.818 293.544 228.721 293.544 175.623 293.544C175.595 293.378 175.65 293.266 175.791 293.209Z" fill="#307C2B"/>
<path fill-rule="evenodd" clip-rule="evenodd" d="M175.624 293.544C228.721 293.544 281.819 293.544 334.916 293.544C334.916 294.996 334.916 296.446 334.916 297.899C280.981 297.899 227.046 297.899 173.111 297.899C173.952 296.441 174.79 294.989 175.624 293.544Z" fill="#317C2B"/>
<path fill-rule="evenodd" clip-rule="evenodd" d="M173.111 297.899C227.046 297.899 280.981 297.899 334.916 297.899C334.916 297.954 334.916 298.011 334.916 298.066C280.845 297.956 226.8 298.066 172.776 298.401C172.776 298.346 172.776 298.289 172.776 298.234C172.888 298.121 172.999 298.011 173.111 297.899Z" fill="#307C2B"/>
<path fill-rule="evenodd" clip-rule="evenodd" d="M334.916 298.066C334.916 300.746 334.916 303.426 334.916 306.106C279.418 306.106 223.919 306.106 168.421 306.106C169.505 304.331 170.453 302.488 171.269 300.579C171.532 300.505 171.728 300.338 171.855 300.076C172.121 299.487 172.429 298.929 172.776 298.401C226.8 298.066 280.845 297.956 334.916 298.066Z" fill="#689365"/>
<path fill-rule="evenodd" clip-rule="evenodd" d="M-0.0839844 306.106C55.861 306.106 111.806 306.106 167.751 306.106C167.974 306.106 168.198 306.106 168.421 306.106C223.919 306.106 279.418 306.106 334.916 306.106C334.916 307.279 334.916 308.451 334.916 309.624C223.249 309.624 111.583 309.624 -0.0839844 309.624C-0.0839844 308.451 -0.0839844 307.279 -0.0839844 306.106Z" fill="#6F6F6F"/>
<path fill-rule="evenodd" clip-rule="evenodd" d="M-0.0839844 309.624C111.583 309.624 223.249 309.624 334.916 309.624C334.916 310.684 334.916 311.746 334.916 312.806C223.249 312.806 111.583 312.806 -0.0839844 312.806C-0.0839844 311.746 -0.0839844 310.684 -0.0839844 309.624Z" fill="#6F6F6F"/>
</g>
<defs>
<filter id="filter0_f_573_2337" x="36.4431" y="192.523" width="116.693" height="35.9885" filterUnits="userSpaceOnUse" color-interpolation-filters="sRGB">
<feFlood flood-opacity="0" result="BackgroundImageFix"/>
<feBlend mode="normal" in="SourceGraphic" in2="BackgroundImageFix" result="shape"/>
<feGaussianBlur stdDeviation="5" result="effect1_foregroundBlur_573_2337"/>
</filter>
<clipPath id="clip0_573_2337">
<rect width="335" height="335" fill="white"/>
</clipPath>
</defs>
</svg>
