<svg width="380" height="254" viewBox="0 0 380 254" fill="none" xmlns="http://www.w3.org/2000/svg">
<g clip-path="url(#clip0_573_2486)">
<path fill-rule="evenodd" clip-rule="evenodd" d="M105.311 34.8741C103.865 33.6577 102.26 32.701 100.497 32.0039C99.0027 31.4474 97.5333 31.4982 96.0893 32.1563C94.1503 33.1501 92.2077 34.1492 90.2627 35.1535C88.353 36.0132 86.3603 36.5889 84.284 36.8807C84.0008 37.0027 83.9075 37.2144 84.0053 37.5157C84.1087 37.8138 84.32 37.9662 84.6387 37.9729C86.032 37.7464 87.4 37.4162 88.7427 36.9823C89.564 36.6745 90.3746 36.3359 91.1747 35.9663C93.066 34.9842 94.9579 34.002 96.8493 33.0199C97.2972 32.8695 97.7532 32.7594 98.2173 32.6897C99.1501 32.7499 100.045 32.9616 100.903 33.3247C102.139 33.9364 103.305 34.6645 104.399 35.5091C105.975 36.726 107.529 37.9706 109.06 39.2429C109.025 39.5509 108.94 39.8388 108.807 40.1065C104.947 40.1759 101.181 40.794 97.508 41.9607C95.5376 42.6114 93.5616 43.2549 91.58 43.8911C89.4945 44.5261 87.3665 44.9494 85.196 45.1611C84.8631 45.3444 84.7532 45.6238 84.8667 45.9993C84.9077 46.0898 84.967 46.166 85.044 46.2279C85.4665 46.2422 85.8891 46.2253 86.3107 46.1771C88.4721 45.8836 90.6001 45.4264 92.6947 44.8055C94.5876 44.1617 96.4789 43.5182 98.3693 42.8751C101.666 41.8359 105.044 41.2856 108.503 41.2241C107.81 43.5955 107.117 45.9662 106.425 48.3361C106.394 48.3305 106.369 48.3135 106.349 48.2853C105.889 48.4561 105.425 48.617 104.956 48.7679C102.422 49.7956 99.8549 50.7439 97.2547 51.6127C95.9865 51.948 94.7026 52.2106 93.404 52.4001C93.7815 52.6851 94.1533 52.9818 94.5187 53.2891C94.9964 53.2713 95.4692 53.2032 95.9373 53.0859C97.0484 52.8329 98.1464 52.5281 99.2307 52.1715C101.497 51.3308 103.76 50.4757 106.02 49.6061C106.02 49.6569 106.02 49.7077 106.02 49.7585C105.479 50.0308 105.344 50.4372 105.615 50.9777C104.195 55.9083 102.759 60.8359 101.308 65.7605C100.438 66.3701 99.6015 67.0305 98.8 67.7417C97.9346 68.6597 97.2085 69.6757 96.6213 70.7897C96.1228 72.4422 95.7174 74.1186 95.4053 75.8189C95.1712 76.6703 95.3992 77.3561 96.0893 77.8763C96.556 78.1867 97.0626 78.398 97.6093 78.5113C98.2832 78.7028 98.9753 78.8298 99.6867 78.8923C100.665 78.9746 101.644 79.0168 102.625 79.0193C104.215 78.9975 105.802 78.938 107.388 78.8415C110.694 78.5804 114.005 78.3604 117.319 78.1811C119.074 78.1064 120.831 78.0897 122.588 78.1303C124.044 78.1516 125.462 78.3889 126.844 78.8415C127.345 79.0325 127.784 79.3119 128.161 79.6797C128.639 80.079 128.976 80.5697 129.175 81.1529C129.219 81.4221 129.253 81.6934 129.276 81.9657C127.882 81.731 126.497 81.7732 125.121 82.0927C123.011 82.8074 121.947 84.2893 121.929 86.5377C114.348 88.9837 106.764 91.4053 99.18 93.8021C95.8816 94.8394 92.5376 95.6949 89.148 96.3675C86.3304 96.8531 83.4931 97.1579 80.636 97.2819C76.0268 97.4165 71.4329 97.2133 66.8547 96.6723C64.4211 96.3589 61.9891 96.0373 59.5587 95.7071C57.0284 95.6212 54.5117 95.7736 52.0093 96.1643C47.0953 96.9598 42.2482 98.0266 37.468 99.3647C37.3336 99.3825 37.2323 99.4419 37.164 99.5425C37.0801 99.2164 37.0294 98.8775 37.012 98.5265C37.0438 98.2395 37.0691 97.9514 37.088 97.6629C37.5961 95.9829 38.1197 94.3065 38.6587 92.6337C38.8766 91.8275 39.0624 91.0147 39.216 90.1953C39.5654 88.1938 39.1432 86.3817 37.9493 84.7597C37.2539 83.9098 36.4685 83.1478 35.5933 82.4737C34.7335 81.8732 33.8552 81.3058 32.9587 80.7719C30.8484 79.3622 29.0498 77.6269 27.5627 75.5649C26.6686 74.1781 25.9931 72.6881 25.536 71.0945C25.4103 70.3874 25.3174 69.6762 25.2573 68.9609C25.2224 67.1377 25.6868 65.4613 26.6507 63.9317C27.6602 62.681 28.1838 61.2413 28.2213 59.6137C28.2569 58.8847 28.2485 58.1568 28.196 57.4293C28.2447 57.5187 28.2616 57.6203 28.2467 57.7341C30.2194 57.5096 32.1785 57.1961 34.124 56.7943C37.1719 56.0282 40.0768 54.8939 42.8387 53.3907C45.7364 51.7722 48.5569 50.028 51.3 48.1583C55.9456 44.8548 60.5897 41.5528 65.2333 38.2523C66.0024 37.7822 66.8131 37.3927 67.6653 37.0839C73.1206 33.791 78.8287 30.9801 84.7907 28.6511C85.7553 28.4237 86.7347 28.3136 87.7293 28.3209C90.178 28.4046 92.61 28.6501 95.0253 29.0575C97.9609 29.5647 100.832 30.3098 103.639 31.2927C104.16 31.537 104.667 31.808 105.159 32.1055C105.847 32.696 106.024 33.4157 105.691 34.2645C105.551 34.4627 105.425 34.6659 105.311 34.8741Z" fill="#FCB9A0"/>
<path fill-rule="evenodd" clip-rule="evenodd" d="M105.31 34.8743C105.606 35.0945 105.91 35.3062 106.222 35.5093C107.28 36.3752 108.344 37.2304 109.414 38.0747C109.319 38.4768 109.201 38.8663 109.06 39.2431C107.529 37.9707 105.975 36.7261 104.398 35.5093C103.305 34.6647 102.139 33.9365 100.902 33.3249C100.045 32.9618 99.1499 32.7501 98.2171 32.6899C97.753 32.7596 97.297 32.8696 96.8491 33.0201C94.9577 34.0022 93.0658 34.9843 91.1744 35.9665C90.3744 36.336 89.5637 36.6747 88.7424 36.9825C87.3998 37.4163 86.0318 37.7465 84.6384 37.9731C84.3197 37.9663 84.1085 37.8139 84.0051 37.5159C83.9073 37.2146 84.0005 37.0029 84.2838 36.8809C86.3601 36.5891 88.3528 36.0133 90.2624 35.1537C92.2075 34.1494 94.1501 33.1503 96.0891 32.1565C97.5331 31.4983 99.0024 31.4475 100.497 32.0041C102.26 32.7011 103.864 33.6579 105.31 34.8743Z" fill="#E5967F"/>
<path fill-rule="evenodd" clip-rule="evenodd" d="M205.58 78.359C201.542 78.294 197.506 78.3869 193.471 78.6384C181.21 79.4731 168.949 80.2777 156.687 81.0514C156.697 78.2523 155.397 76.3641 152.785 75.3872C149.863 74.517 147.583 75.3552 145.945 77.9018C133.259 67.8678 120.086 58.512 106.425 49.8348C106.296 49.78 106.16 49.7546 106.02 49.7586C106.02 49.7078 106.02 49.657 106.02 49.6062C106.167 49.1918 106.303 48.7685 106.425 48.3362C107.117 45.9663 107.81 43.5957 108.503 41.2242C108.614 40.8554 108.715 40.4828 108.807 40.1066C108.94 39.8389 109.025 39.5511 109.06 39.243C109.201 38.8662 109.319 38.4767 109.415 38.0746C109.595 37.4915 109.805 36.9158 110.048 36.3474C111.088 34.8777 112.498 34.3104 114.279 34.6456C130.941 39.5941 147.611 44.5048 164.287 49.3776C178.263 53.5529 192.264 57.6844 206.289 61.7728C208.316 62.4332 209.287 63.8302 209.203 65.9638C208.847 67.3227 208.476 68.677 208.088 70.0278C207.927 70.5978 207.741 71.1566 207.531 71.7042C206.934 73.948 206.283 76.166 205.58 78.359Z" fill="#71936F"/>
<path fill-rule="evenodd" clip-rule="evenodd" d="M108.807 40.1067C108.715 40.4829 108.614 40.8554 108.503 41.2243C105.044 41.2858 101.666 41.8361 98.3693 42.8753C96.4789 43.5184 94.5875 44.1619 92.6946 44.8057C90.6 45.4266 88.472 45.8838 86.3106 46.1773C85.8891 46.2254 85.4665 46.2424 85.0439 46.2281C84.9669 46.1662 84.9076 46.09 84.8666 45.9995C84.7531 45.624 84.8631 45.3446 85.1959 45.1613C87.3665 44.9496 89.4945 44.5263 91.5799 43.8913C93.5615 43.2551 95.5375 42.6116 97.5079 41.9609C101.181 40.7942 104.947 40.1761 108.807 40.1067Z" fill="#E5967F"/>
<path fill-rule="evenodd" clip-rule="evenodd" d="M28.1959 57.4295C28.2484 58.1569 28.2569 58.8849 28.2213 59.6139C28.1837 61.2415 27.6602 62.6812 26.6506 63.9319C25.6868 65.4614 25.2224 67.1378 25.2573 68.9611C25.3173 69.6763 25.4102 70.3875 25.5359 71.0947C25.993 72.6883 26.6685 74.1782 27.5626 75.5651C29.0497 77.627 30.8484 79.3624 32.9586 80.7721C33.8552 81.306 34.7334 81.8734 35.5933 82.4739C36.4685 83.148 37.2538 83.91 37.9493 84.7599C39.1431 86.3819 39.5653 88.1939 39.2159 90.1955C39.0624 91.0149 38.8766 91.8277 38.6586 92.6339C38.1196 94.3067 37.5961 95.9831 37.0879 97.6631C37.069 97.9516 37.0437 98.2396 37.0119 98.5267C37.0294 98.8777 37.08 99.2165 37.1639 99.5427C37.2077 99.7164 37.2668 99.8861 37.3413 100.051C37.864 100.896 38.5649 101.548 39.4439 102.006C40.4544 102.496 41.434 103.038 42.3826 103.632C43.5628 104.456 44.0442 105.581 43.8266 107.01C43.635 108.658 42.7653 109.767 41.2173 110.338C40.0697 110.676 38.8959 110.837 37.6959 110.82C35.5548 110.725 33.4183 110.564 31.2866 110.338C30.629 110.288 29.9703 110.262 29.3106 110.261C28.3223 110.201 27.3596 110.328 26.4226 110.642C17.6652 116.48 8.84918 122.229 -0.0253906 127.889C-0.0253906 103.369 -0.0253906 78.8503 -0.0253906 54.3307C1.88896 54.6939 3.78896 55.1176 5.67461 55.6007C9.38903 54.4876 12.8428 52.8366 16.0359 50.6477C17.2519 49.7333 18.4679 48.8189 19.6839 47.9045C20.7908 47.2899 21.9392 47.2052 23.1293 47.6505C24.0663 48.0986 24.8347 48.7505 25.4346 49.6063C27.0523 51.9598 27.9728 54.5679 28.1959 57.4295Z" fill="#9ABD7F"/>
<path fill-rule="evenodd" clip-rule="evenodd" d="M106.426 48.3362C106.303 48.7685 106.168 49.1918 106.02 49.6062C103.761 50.4758 101.498 51.3309 99.231 52.1716C98.1467 52.5282 97.0488 52.833 95.9376 53.086C95.4695 53.2033 94.9968 53.2714 94.519 53.2892C94.1537 52.9819 93.7818 52.6852 93.4043 52.4002C94.7029 52.2107 95.9868 51.9481 97.255 51.6128C99.8552 50.744 102.422 49.7957 104.956 48.768C105.425 48.6171 105.889 48.4562 106.35 48.2854C106.369 48.3136 106.394 48.3306 106.426 48.3362Z" fill="#E5967F"/>
<path fill-rule="evenodd" clip-rule="evenodd" d="M106.02 49.7587C106.16 49.7547 106.296 49.7801 106.425 49.8349C120.086 58.5121 133.259 67.8679 145.945 77.9019C145.74 78.3337 145.554 78.7741 145.388 79.2227C144.756 78.7442 144.13 78.2534 143.513 77.7495C143.374 77.8496 143.222 77.9258 143.057 77.9781C140.809 78.3271 138.58 78.7675 136.369 79.2989C133.963 79.9014 131.565 80.5196 129.175 81.1531C128.976 80.5699 128.639 80.0792 128.161 79.6799C130.556 78.9718 132.971 78.3195 135.407 77.7241C137.507 77.2334 139.618 76.7848 141.74 76.3779C130.09 67.3563 118.048 58.8895 105.615 50.9779C105.344 50.4374 105.479 50.031 106.02 49.7587Z" fill="#F2F2F7"/>
<path fill-rule="evenodd" clip-rule="evenodd" d="M105.615 50.9778C118.048 58.8894 130.09 67.3562 141.74 76.3778C139.618 76.7847 137.507 77.2333 135.407 77.724C132.971 78.3194 130.556 78.9716 128.161 79.6798C127.784 79.312 127.345 79.0326 126.844 78.8416C125.462 78.389 124.044 78.1517 122.588 78.1304C120.831 78.0897 119.074 78.1065 117.319 78.1812C114.005 78.3605 110.695 78.5805 107.388 78.8416C105.802 78.9381 104.215 78.9975 102.625 79.0194C101.644 79.0168 100.665 78.9747 99.6867 78.8924C98.9753 78.8299 98.2832 78.7029 97.6094 78.5114C98.7919 74.2437 100.025 69.9932 101.308 65.7606C102.759 60.836 104.195 55.9084 105.615 50.9778Z" fill="#71936F"/>
<path fill-rule="evenodd" clip-rule="evenodd" d="M5.85206 57.1754C6.32296 57.0794 6.61003 57.2572 6.71339 57.7088C6.56915 58.0573 6.39181 58.3875 6.18139 58.6994C4.70187 62.0715 5.07342 65.2043 7.29606 68.0974C8.0668 68.9036 8.9028 69.6402 9.80406 70.3072C10.3148 70.8198 10.8553 71.2937 11.4254 71.7296C11.651 72.0573 11.9128 72.3539 12.2107 72.6186C13.3788 74.0669 13.8179 75.7265 13.5281 77.597C13.3691 78.5525 13.1665 79.501 12.9201 80.4418C12.5319 82.074 12.5488 83.6996 12.9707 85.3186C13.1783 85.8246 13.4147 86.3158 13.6801 86.7918C13.9974 87.1758 14.3014 87.5655 14.5921 87.9602C15.8889 89.1261 17.2147 90.2777 18.5694 91.4146C19.7818 92.5932 20.449 94.0323 20.5707 95.7326C20.6038 97.0026 20.5954 98.2726 20.5454 99.5426C20.4952 100.914 20.6725 102.252 21.0774 103.556C21.2604 103.934 21.4799 104.289 21.7361 104.623C22.2137 105.112 22.7795 105.468 23.4334 105.689C23.6926 106.001 23.7011 106.323 23.4587 106.655C23.4017 106.728 23.3257 106.762 23.2307 106.756C21.7466 106.31 20.7249 105.361 20.1654 103.911C19.8506 103.023 19.6479 102.109 19.5574 101.168C19.5405 99.5426 19.5236 97.917 19.5067 96.2914C19.4349 94.5322 18.7678 93.0509 17.5054 91.8464C16.4599 91.0077 15.4128 90.1776 14.3641 89.3572C12.506 87.6366 11.5433 85.4949 11.4761 82.931C11.4789 82.5063 11.5042 82.0831 11.5521 81.661C11.7556 80.5729 11.992 79.4893 12.2614 78.4098C12.8189 75.8642 12.118 73.7646 10.1587 72.1106C9.29015 71.3334 8.39507 70.58 7.47339 69.85C7.10145 69.4771 6.74678 69.0875 6.40939 68.6816C6.36136 68.6572 6.31069 68.6486 6.25739 68.6562C6.26494 68.6029 6.25653 68.5521 6.23206 68.5038C5.03341 67.0174 4.35785 65.3075 4.20539 63.373C4.07018 61.3059 4.50929 59.3755 5.52273 57.5818C5.64326 57.4528 5.75306 57.3171 5.85206 57.1754Z" fill="#FEA990"/>
<path fill-rule="evenodd" clip-rule="evenodd" d="M19.0249 63.6777C20.1026 63.666 20.5079 64.1821 20.2409 65.2271C19.7891 65.8905 19.2149 66.0262 18.5183 65.6335C18.0332 65.0473 18.0502 64.4798 18.5689 63.9317C18.7199 63.8367 18.8719 63.7524 19.0249 63.6777Z" fill="#FEA990"/>
<path fill-rule="evenodd" clip-rule="evenodd" d="M156.687 81.0513C156.657 81.5482 156.589 82.0389 156.484 82.5245C155.849 84.5575 154.481 85.7854 152.38 86.2075C150.433 86.6754 148.659 86.3198 147.06 85.1407C145.292 83.5111 144.735 81.538 145.388 79.2225C145.555 78.774 145.74 78.3335 145.946 77.9017C147.583 75.3551 149.863 74.5169 152.786 75.3871C155.397 76.364 156.698 78.2522 156.687 81.0513Z" fill="#FE8D68"/>
<path fill-rule="evenodd" clip-rule="evenodd" d="M145.388 79.2227C144.734 81.5382 145.292 83.5112 147.06 85.1409C148.659 86.32 150.432 86.6756 152.38 86.2077C154.481 85.7856 155.849 84.5577 156.484 82.5247C156.505 82.5562 156.539 82.5735 156.585 82.5755C157.729 82.4277 158.878 82.3261 160.031 82.2707C160.004 82.5476 160.063 82.8016 160.208 83.0327C170.182 94.7904 179.428 107.084 187.948 119.914C187.936 119.944 187.911 119.961 187.872 119.964C186.32 119.481 184.758 119.032 183.185 118.618C171.255 115.05 159.315 111.527 147.364 108.052C139.096 105.581 130.82 103.143 122.537 100.737C114.751 98.4307 106.966 96.1193 99.1801 93.8023C106.764 91.4056 114.348 88.9839 121.929 86.5379C124.44 86.4622 126.923 86.1661 129.377 85.6489C129.87 85.5128 130.343 85.3263 130.796 85.0901C131.086 84.9179 131.281 84.6725 131.379 84.3535C131.539 83.6322 131.328 83.048 130.745 82.6009C130.286 82.3027 129.796 82.0909 129.276 81.9659C129.253 81.6936 129.219 81.4224 129.175 81.1531C131.565 80.5196 133.963 79.9014 136.369 79.2989C138.58 78.7675 140.809 78.3271 143.057 77.9781C143.222 77.9258 143.374 77.8496 143.513 77.7495C144.131 78.2534 144.756 78.7442 145.388 79.2227Z" fill="#71936F"/>
<path fill-rule="evenodd" clip-rule="evenodd" d="M205.58 78.3589C205.665 78.4524 205.741 78.554 205.808 78.6637C205.931 79.2241 205.72 79.5629 205.175 79.6797C201.998 79.7285 198.823 79.8387 195.65 80.0099C188.083 80.4605 180.517 80.9177 172.951 81.3815C169.235 81.6386 165.519 81.9007 161.804 82.1689C172.021 94.2822 181.487 106.948 190.203 120.167C190.228 120.285 190.236 120.403 190.228 120.523C190.163 120.784 190.011 120.978 189.772 121.107C189.277 121.294 188.863 121.183 188.531 120.777C188.344 120.48 188.15 120.192 187.948 119.913C179.429 107.084 170.182 94.7902 160.208 83.0325C160.063 82.8014 160.004 82.5474 160.031 82.2705C158.878 82.3259 157.73 82.4275 156.586 82.5753C156.539 82.5733 156.506 82.556 156.484 82.5245C156.589 82.0389 156.657 81.5482 156.687 81.0513C168.949 80.2777 181.211 79.473 193.471 78.6383C197.506 78.3869 201.542 78.2939 205.58 78.3589Z" fill="#F2F2F7"/>
<path fill-rule="evenodd" clip-rule="evenodd" d="M205.174 79.6797C204.833 81.0645 204.436 82.4361 203.984 83.7945C200.651 95.254 197.307 106.701 193.952 118.135C193.228 119.737 191.986 120.533 190.228 120.523C190.236 120.403 190.228 120.285 190.202 120.167C181.487 106.948 172.021 94.2821 161.804 82.1689C165.518 81.9007 169.234 81.6385 172.95 81.3815C180.516 80.9177 188.082 80.4605 195.649 80.0099C198.822 79.8387 201.997 79.7285 205.174 79.6797Z" fill="#71936F"/>
<path fill-rule="evenodd" clip-rule="evenodd" d="M129.276 81.9658C129.797 82.0908 130.287 82.3026 130.746 82.6008C131.328 83.0479 131.539 83.6321 131.379 84.3534C131.281 84.6725 131.087 84.9178 130.796 85.09C130.343 85.3262 129.87 85.5127 129.378 85.6488C126.923 86.166 124.44 86.4621 121.93 86.5378C121.947 84.2894 123.011 82.8076 125.122 82.0928C126.498 81.7733 127.882 81.7311 129.276 81.9658Z" fill="#EF9F8A"/>
<path fill-rule="evenodd" clip-rule="evenodd" d="M23.6362 82.3215C24.6145 82.261 25.0452 82.7182 24.9282 83.6931C24.6213 84.3733 24.1062 84.6191 23.3829 84.4297C22.6841 83.9313 22.5912 83.3298 23.1042 82.6263C23.2707 82.5008 23.4481 82.3992 23.6362 82.3215Z" fill="#FEA990"/>
<path fill-rule="evenodd" clip-rule="evenodd" d="M127.3 82.8294C128.303 82.8045 129.265 82.9823 130.188 83.3628C130.249 83.4086 130.291 83.468 130.315 83.5406C130.465 83.9846 130.321 84.2559 129.884 84.3534C129.281 84.2036 128.673 84.0766 128.06 83.9724C127.655 83.9384 127.249 83.9384 126.844 83.9724C126.51 84.0507 126.172 84.0847 125.831 84.074C125.475 83.7611 125.441 83.4223 125.729 83.058C125.923 82.9757 126.126 82.9249 126.337 82.9056C126.667 82.897 126.988 82.8716 127.3 82.8294Z" fill="#FCB9A0"/>
<path fill-rule="evenodd" clip-rule="evenodd" d="M327.231 117.018C327.18 117.201 327.171 117.388 327.206 117.576C328.357 119.16 329.083 120.922 329.384 122.86C329.577 124.567 329.611 126.277 329.486 127.99C329.358 128.833 329.308 129.68 329.334 130.53C329.603 130.899 329.949 130.984 330.372 130.784C330.432 130.7 330.49 130.615 330.55 130.53C330.819 128.37 330.903 126.202 330.803 124.028C330.696 122.485 330.367 120.995 329.815 119.558C330.246 119.913 330.685 120.26 331.132 120.599C332.593 121.594 334.096 122.525 335.642 123.393C340.517 125.947 350.639 130.276 350.639 130.276C350.639 130.276 350.038 131.611 350.436 131.877C350.612 131.918 350.781 131.901 350.943 131.826C351.276 131.47 351.613 131.123 351.956 130.784C353.899 131.562 355.841 132.316 357.783 133.045C358.038 133.13 358.292 133.206 358.543 133.274C358.148 134.792 357.667 136.282 357.099 137.744C355.89 140.677 354.522 143.522 352.995 146.278C349.881 152.049 346.638 157.739 343.267 163.347C341.035 166.974 338.721 170.547 336.326 174.066C334.721 176.37 332.982 178.571 331.107 180.67C330.413 181.375 329.712 182.069 329.004 182.753C327.666 181.879 326.332 180.99 325.002 180.086C324.893 180.014 324.775 179.972 324.647 179.959C324.809 179.606 324.775 179.276 324.546 178.968C324.169 178.749 323.865 178.825 323.634 179.197C320.756 177.288 317.851 175.417 314.919 173.583C312.567 172.235 310.169 170.965 307.724 169.773C305.197 168.591 302.596 167.609 299.922 166.827C299.519 166.76 299.114 166.735 298.706 166.751C302.073 166.739 305.349 166.171 308.535 165.049C310.228 164.359 311.816 163.478 313.298 162.407C313.534 162.014 313.483 161.659 313.146 161.341C312.924 161.252 312.705 161.252 312.487 161.341C310.391 162.91 308.06 164.011 305.495 164.643C303.045 165.183 300.562 165.463 298.047 165.481C297.051 165.428 296.054 165.403 295.058 165.405C294.916 165.433 294.798 165.501 294.703 165.608C294.764 165.664 294.748 165.69 294.652 165.684C294.647 165.653 294.63 165.627 294.602 165.608C289.871 164.815 285.108 164.325 280.314 164.135C271.802 164.071 263.29 164.037 254.778 164.033C252.176 164.005 249.575 163.954 246.975 163.881C243.539 163.796 240.111 163.593 236.69 163.271C235.269 163.133 233.867 162.896 232.484 162.56C231.992 162.424 231.519 162.237 231.066 162.001C230.951 161.914 230.841 161.821 230.736 161.722C230.307 160.754 230.408 159.84 231.04 158.978C231.701 158.27 232.47 157.702 233.346 157.277C235.065 156.525 236.838 155.933 238.666 155.499C242.27 154.712 245.884 153.983 249.508 153.314C251.504 152.924 253.463 152.399 255.386 151.739C255.83 151.559 256.253 151.339 256.652 151.079C256.977 150.878 257.238 150.616 257.438 150.292C257.472 150.19 257.472 150.088 257.438 149.987C257.222 149.756 256.96 149.595 256.652 149.504C255.686 149.277 254.706 149.142 253.714 149.098C249.053 148.957 244.392 148.931 239.73 149.022C235.503 149.031 231.281 148.904 227.063 148.641C224.784 148.48 222.538 148.125 220.324 147.574C219.376 147.328 218.482 146.955 217.639 146.456C216.312 145.666 215.899 144.54 216.398 143.078C216.847 142.272 217.48 141.655 218.298 141.224C219.832 140.48 221.436 139.955 223.111 139.649C226.664 139.033 230.244 138.677 233.852 138.582C239.323 138.428 244.795 138.309 250.268 138.227C251.384 138.185 252.499 138.117 253.612 138.023C254.468 137.933 255.312 137.78 256.146 137.566C256.378 137.471 256.589 137.344 256.779 137.185C256.916 136.973 256.933 136.753 256.83 136.525C256.576 136.254 256.281 136.042 255.943 135.89C254.563 135.394 253.144 135.038 251.687 134.823C249.697 134.527 247.704 134.256 245.708 134.01C239.806 133.417 233.912 132.757 228.026 132.029C224.95 131.596 221.893 131.054 218.855 130.403C216.713 129.921 214.635 129.244 212.623 128.371C211.811 127.999 211.068 127.525 210.394 126.949C210.099 126.636 209.82 126.306 209.558 125.958C209.258 125.384 209.14 124.774 209.203 124.13C209.229 123.611 209.457 123.213 209.887 122.936C210.788 122.435 211.75 122.113 212.775 121.971C213.851 121.819 214.932 121.7 216.018 121.615C220.34 121.397 224.663 121.38 228.988 121.564C236.555 121.906 244.121 122.262 251.687 122.631C253.427 122.677 255.167 122.66 256.906 122.58C257.192 122.524 257.479 122.473 257.767 122.428C258.296 122.156 258.296 121.868 257.767 121.564C256.849 121.145 255.903 120.806 254.93 120.548C252.51 119.975 250.078 119.467 247.634 119.024C239.551 117.71 231.445 116.558 223.314 115.57C222.404 115.448 221.509 115.262 220.628 115.011C219.408 114.679 218.311 114.12 217.335 113.335C216.345 112.408 216.067 111.299 216.499 110.007C216.818 109.327 217.265 108.743 217.842 108.255C219.636 106.901 221.662 106.233 223.922 106.248C225.612 106.318 227.301 106.411 228.988 106.527C237.233 107.273 245.475 108.035 253.714 108.813C259.329 109.307 264.953 109.679 270.586 109.931C272.072 109.965 273.558 109.965 275.044 109.931C275.91 109.892 276.771 109.808 277.628 109.677C278.054 109.604 278.46 109.469 278.844 109.271C279.06 109.097 279.102 108.885 278.971 108.636C278.795 108.409 278.601 108.197 278.388 108.001C277.232 107.158 276.033 106.38 274.791 105.664C272.079 104.182 269.376 102.675 266.684 101.143C264.446 99.8427 262.267 98.4543 260.148 96.9771C258.701 95.9489 257.376 94.7724 256.171 93.4465C255.152 92.2446 254.653 90.8476 254.676 89.2555C254.622 88.1323 254.951 87.1417 255.664 86.2837C256.908 84.9497 258.42 84.4671 260.199 84.8359C260.893 85.1839 261.602 85.5054 262.327 85.8011C263.916 86.4285 265.504 87.0553 267.09 87.6807C273.991 90.2695 280.882 92.877 287.762 95.5039C292.508 97.4622 297.27 99.3586 302.05 101.193C305.609 102.657 309.089 104.282 312.487 106.07C317.899 109.05 322.813 112.699 327.231 117.018Z" fill="#FCBAA0"/>
<path d="M350.639 130.276C350.639 130.276 350.038 131.611 350.436 131.877C350.612 131.918 350.781 131.901 350.943 131.826C351.276 131.47 351.613 131.123 351.956 130.784L350.639 130.276Z" fill="#FCBAA0"/>
<path d="M324.647 179.959C324.809 179.606 324.775 179.276 324.546 178.968C324.169 178.749 323.865 178.825 323.634 179.197L324.647 179.959Z" fill="#FCBAA0"/>
<path fill-rule="evenodd" clip-rule="evenodd" d="M284.113 113.97C284.447 113.913 284.734 113.997 284.975 114.224C286.268 116.952 287.56 119.678 288.851 122.403C289.777 124.193 290.807 125.92 291.941 127.584C293.742 130.084 295.997 132.057 298.705 133.502C301.54 134.874 304.512 135.839 307.623 136.398C308.697 136.617 309.778 136.803 310.865 136.957C311.339 137.18 311.449 137.527 311.195 137.998C311.046 138.166 310.861 138.25 310.637 138.252C308.585 137.928 306.551 137.53 304.532 137.058C302.07 136.438 299.723 135.54 297.489 134.366C295.009 132.929 292.906 131.058 291.181 128.753C290.195 127.4 289.3 125.995 288.496 124.536C287.918 123.361 287.327 122.192 286.723 121.031C285.766 118.891 284.769 116.775 283.733 114.681C283.687 114.35 283.814 114.113 284.113 113.97Z" fill="#EF9F8A"/>
<path fill-rule="evenodd" clip-rule="evenodd" d="M329.815 119.558C330.367 120.995 330.696 122.485 330.803 124.028C330.903 126.202 330.819 128.37 330.55 130.531C330.49 130.615 330.432 130.7 330.372 130.785C329.949 130.984 329.603 130.899 329.334 130.531C329.308 129.68 329.358 128.833 329.486 127.991C329.611 126.277 329.577 124.567 329.384 122.86C329.083 120.922 328.357 119.16 327.206 117.577C327.171 117.388 327.18 117.201 327.231 117.018C327.496 116.655 327.834 116.579 328.244 116.789C328.893 117.641 329.417 118.564 329.815 119.558Z" fill="#EF9F8A"/>
<path fill-rule="evenodd" clip-rule="evenodd" d="M259.641 118.948C260.017 118.874 260.329 118.976 260.579 119.253C260.608 119.362 260.633 119.473 260.655 119.583C260.387 120.383 260.141 121.187 259.92 121.996C259.787 122.821 259.703 123.651 259.667 124.485C259.407 124.968 259.027 125.095 258.527 124.866C258.478 124.794 258.436 124.718 258.4 124.638C258.377 123.433 258.512 122.248 258.805 121.082C258.964 120.555 259.133 120.03 259.312 119.507C259.389 119.302 259.499 119.116 259.641 118.948Z" fill="#EF9F8A"/>
<path fill-rule="evenodd" clip-rule="evenodd" d="M166.212 146.329C166.099 146.277 165.98 146.268 165.857 146.304C161.749 147.671 157.679 149.127 153.647 150.673C142.599 155.059 131.537 159.42 120.46 163.754C119.574 161.072 117.716 159.684 114.887 159.588C111.876 159.644 110.001 161.134 109.263 164.059C94.0906 158.372 78.6707 153.461 63.004 149.327C62.885 149.361 62.7669 149.395 62.6494 149.428C62.6139 148.446 62.5972 147.464 62.5987 146.482C62.5029 143.554 62.4355 140.625 62.396 137.693C62.3899 136.896 62.4153 136.1 62.472 135.306C62.9924 133.768 64.0478 132.846 65.6387 132.537C97.617 131.772 129.596 131.036 161.576 130.327C161.939 130.336 162.302 130.344 162.665 130.353C164.415 130.668 165.487 131.692 165.883 133.426C166.004 137.727 166.114 142.028 166.212 146.329Z" fill="#83AA80"/>
<path fill-rule="evenodd" clip-rule="evenodd" d="M258.172 133.172C258.437 133.148 258.69 133.19 258.932 133.299C259.054 133.425 259.105 133.578 259.084 133.756C258.865 134.524 258.739 135.312 258.704 136.119C258.679 137.121 258.712 138.12 258.805 139.116C258.679 139.365 258.477 139.467 258.197 139.421C258.087 139.412 257.978 139.404 257.868 139.395C257.805 139.317 257.729 139.258 257.64 139.217C257.431 138.427 257.339 137.623 257.361 136.804C257.336 135.643 257.513 134.517 257.893 133.426C257.991 133.337 258.084 133.252 258.172 133.172Z" fill="#EF9F8A"/>
<path fill-rule="evenodd" clip-rule="evenodd" d="M357.977 133.048C357.969 133.117 359.759 133.666 359.784 133.731C366.451 136.193 373.181 138.479 379.974 140.589C379.974 166.226 379.974 191.863 379.974 217.5C369.106 210.033 358.229 202.573 347.345 195.123C341.61 191.241 334.795 186.581 329.045 182.725C331.448 180.342 333.585 177.714 335.523 174.949C337.506 172.047 339.235 168.834 341.136 165.878C346.06 157.919 350.623 150.451 354.955 142.119C356.395 139.215 357.138 136.172 357.977 133.048Z" fill="#FCB99F"/>
<path fill-rule="evenodd" clip-rule="evenodd" d="M293.436 141.148C294.215 141.074 294.476 141.412 294.221 142.164C294.162 142.223 294.103 142.282 294.044 142.342C291.832 142.854 289.637 143.429 287.457 144.069C285.24 144.783 283.061 145.596 280.921 146.507C280.781 146.537 280.647 146.52 280.516 146.456C280.264 146.216 280.17 145.919 280.237 145.567C280.294 145.46 280.37 145.366 280.465 145.288C284.657 143.484 288.981 142.104 293.436 141.148Z" fill="#EF9F8A"/>
<path fill-rule="evenodd" clip-rule="evenodd" d="M319.783 145.669C320.209 145.597 320.564 145.715 320.847 146.025C322.357 146.872 323.902 147.634 325.483 148.311C325.717 148.827 325.573 149.191 325.052 149.403C324.912 149.432 324.778 149.415 324.647 149.352C322.839 148.645 321.125 147.756 319.504 146.685C319.271 146.254 319.364 145.915 319.783 145.669Z" fill="#EF9F8A"/>
<path fill-rule="evenodd" clip-rule="evenodd" d="M166.212 146.33C166.343 146.384 166.453 146.468 166.542 146.584C166.772 147.032 166.679 147.388 166.263 147.65C162.949 148.787 159.655 149.981 156.383 151.232C146.103 155.174 135.852 159.187 125.628 163.271C138.913 171.641 151.681 180.734 163.932 190.551C164.141 190.7 164.276 190.895 164.338 191.135C164.35 191.334 164.307 191.52 164.211 191.694C163.877 192.119 163.463 192.228 162.97 192.024C162.671 191.783 162.367 191.555 162.058 191.338C150.013 181.658 137.43 172.726 124.311 164.541C124.133 164.362 124.032 164.151 124.007 163.906C122.891 164.364 121.777 164.821 120.663 165.278C120.618 164.767 120.55 164.259 120.46 163.754C131.538 159.42 142.6 155.059 153.647 150.673C157.679 149.128 161.75 147.671 165.858 146.304C165.981 146.269 166.099 146.277 166.212 146.33Z" fill="#F2F2F7"/>
<path fill-rule="evenodd" clip-rule="evenodd" d="M62.5987 146.482C62.5972 147.464 62.6139 148.446 62.6494 149.428C62.3454 149.713 62.2694 150.052 62.4214 150.444C62.5075 150.539 62.6007 150.624 62.7001 150.698C62.7001 151.071 62.7001 151.444 62.7001 151.816C62.6864 152.058 62.7031 152.295 62.7507 152.527C59.39 152.562 56.0288 152.604 52.6681 152.654C52.3864 152.796 52.3524 152.982 52.5667 153.213C56.7077 153.187 60.8457 153.127 64.9801 153.035C70.1364 153.896 75.2872 154.811 80.4334 155.778C81.5688 156.041 82.7169 156.27 83.8787 156.464C84.5121 156.613 85.1201 156.834 85.7027 157.125C85.9282 157.258 86.1309 157.419 86.3107 157.607C86.5732 158.024 86.6912 158.481 86.6654 158.979C86.5316 161.779 85.1636 163.684 82.5614 164.694C80.8595 165.322 79.1034 165.618 77.2921 165.583C77.3149 165.437 77.2809 165.31 77.1907 165.202C73.7576 165.305 70.4049 164.84 67.1334 163.805C67.0467 163.802 66.9794 163.836 66.9307 163.906C66.9206 163.996 66.8953 164.08 66.8547 164.16C64.4764 165.217 62.0444 166.141 59.5587 166.929C56.7837 167.776 53.9464 168.149 51.0467 168.047C50.9763 168.095 50.9424 168.163 50.9454 168.25C50.992 168.356 51.0254 168.466 51.0467 168.58C52.1264 168.635 53.2072 168.635 54.2894 168.58C52.6787 173.702 51.3614 178.892 50.3374 184.15C50.4368 184.442 50.6141 184.501 50.8694 184.328C51.8265 179.339 53.0678 174.428 54.5934 169.596C54.6729 169.533 54.7489 169.432 54.8214 169.291C54.9339 169.028 55.0605 168.774 55.2014 168.529C55.1953 168.498 55.1781 168.481 55.1507 168.478C55.8043 168.378 56.463 168.268 57.1267 168.148C59.1438 167.681 61.1198 167.08 63.0547 166.345C63.2067 174.253 63.3841 182.161 63.5867 190.068C63.6678 190.597 63.8112 191.105 64.0174 191.592C63.646 191.859 63.57 192.198 63.7894 192.608C64.2155 193.117 64.7136 193.202 65.2841 192.862C66.0273 193.375 66.8547 193.595 67.7667 193.523C85.5674 193.098 103.368 192.692 121.169 192.304C121.47 192.698 121.782 193.088 122.107 193.472C122.311 193.817 122.497 194.172 122.664 194.539C123.151 196.223 122.704 197.603 121.321 198.679C120.296 199.382 119.156 199.729 117.901 199.72C116.898 199.678 115.91 199.534 114.937 199.289C110.6 198.029 106.327 196.606 102.119 195.021C103.064 196.189 103.951 197.4 104.779 198.654C105.401 199.615 105.874 200.647 106.197 201.752C106.461 203.059 106.132 204.185 105.209 205.131C103.794 206.192 102.223 206.497 100.497 206.045C99.4081 205.677 98.378 205.185 97.4067 204.572C94.8709 202.85 92.3715 201.08 89.9081 199.263C86.3254 200.375 82.8461 201.721 79.4707 203.302C74.6822 205.617 70.2575 208.478 66.1961 211.887C64.3001 213.396 62.2562 214.683 60.0654 215.748C56.9185 217.242 53.6079 217.843 50.1347 217.551C50.116 217.453 50.0822 217.36 50.0334 217.272C46.069 216.719 42.4886 215.246 39.2921 212.852C38.9445 212.828 38.8263 212.98 38.9374 213.309C39.9631 214.086 41.044 214.772 42.1801 215.367C42.0421 215.41 41.907 215.469 41.7747 215.545C40.9542 216.138 40.1266 216.723 39.2921 217.297C36.5457 219.258 33.8266 221.256 31.1347 223.292C28.3484 221.71 25.7644 219.839 23.3827 217.678C18.9008 213.405 15.4132 208.436 12.9201 202.768C11.0075 197.888 9.90975 192.825 9.62673 187.579C9.51404 185.21 9.47184 182.839 9.50006 180.467C13.0385 178.857 16.5513 177.172 20.0387 175.413C20.3333 174.982 20.6204 174.55 20.9001 174.117C19.8256 177.351 18.9474 180.644 18.2654 183.998C18.2706 184.164 18.3551 184.257 18.5187 184.277C18.6191 184.28 18.7036 184.247 18.7721 184.176C19.5035 180.734 20.4408 177.348 21.5841 174.016C21.6488 173.649 21.5052 173.53 21.1534 173.66C22.428 171.782 23.7031 169.902 24.9787 168.021C25.5333 167.266 26.1244 166.537 26.7521 165.837C27.1659 165.422 27.5796 165.007 27.9934 164.592C31.8053 161.295 35.8586 158.332 40.1534 155.702C47.1717 151.535 54.6537 148.462 62.5987 146.482Z" fill="#FCB9A0"/>
<path fill-rule="evenodd" clip-rule="evenodd" d="M258.071 147.295C258.393 147.243 258.68 147.311 258.932 147.498C259.003 147.606 259.037 147.724 259.034 147.853C258.854 148.967 258.812 150.085 258.907 151.206C259.053 151.962 259.23 152.707 259.439 153.441C259.431 153.873 259.211 154.11 258.78 154.153C258.623 154.159 258.488 154.108 258.375 154C258.269 153.839 258.176 153.67 258.096 153.492C257.557 151.803 257.405 150.075 257.64 148.311C257.66 148.067 257.71 147.83 257.792 147.599C257.861 147.471 257.954 147.37 258.071 147.295Z" fill="#EF9F8A"/>
<path fill-rule="evenodd" clip-rule="evenodd" d="M166.263 147.65C166.462 157.658 166.69 167.666 166.947 177.673C167.021 181.161 167.071 184.649 167.099 188.138C167.048 188.341 166.997 188.544 166.947 188.747C166.471 189.978 165.601 190.774 164.337 191.135C164.276 190.895 164.141 190.7 163.932 190.551C151.68 180.734 138.912 171.64 125.628 163.271C135.851 159.187 146.103 155.174 156.383 151.232C159.655 149.981 162.948 148.787 166.263 147.65Z" fill="#83AA80"/>
<path fill-rule="evenodd" clip-rule="evenodd" d="M109.263 164.059C109.185 164.53 109.134 165.004 109.111 165.481C108.358 165.182 107.598 164.919 106.831 164.694C106.746 164.812 106.645 164.914 106.527 164.998C104.054 166.263 101.639 167.618 99.2813 169.062C89.9166 175.032 80.7459 181.281 71.7693 187.808C70.5194 188.756 69.2699 189.704 68.02 190.652C67.0837 191.363 66.1717 192.099 65.284 192.862C64.7135 193.202 64.2154 193.117 63.7893 192.608C63.57 192.198 63.646 191.859 64.0173 191.592C70.3983 186.573 76.951 181.789 83.676 177.241C87.9903 174.325 92.3309 171.446 96.6973 168.605C99.3234 166.948 102.009 165.381 104.753 163.906C104.553 163.808 104.35 163.715 104.145 163.627C101.208 162.595 98.269 161.562 95.3293 160.528C92.338 159.511 89.3319 158.538 86.3107 157.607C86.1308 157.419 85.9281 157.258 85.7027 157.124C85.12 156.834 84.512 156.613 83.8787 156.464C82.7169 156.27 81.5688 156.041 80.4333 155.778C74.5601 153.974 68.6493 152.28 62.7 150.698C62.6007 150.624 62.5075 150.539 62.4213 150.444C62.2693 150.052 62.3453 149.713 62.6493 149.428C62.7669 149.395 62.8849 149.361 63.004 149.327C78.6706 153.461 94.0905 158.372 109.263 164.059Z" fill="#F2F2F7"/>
<path fill-rule="evenodd" clip-rule="evenodd" d="M62.6997 150.698C68.649 152.28 74.5598 153.974 80.433 155.778C75.2868 154.811 70.1361 153.896 64.9797 153.035C66.0103 153.027 67.0403 153.002 68.0704 152.959C68.2097 152.789 68.2011 152.628 68.045 152.476C66.7383 152.47 65.4296 152.47 64.1184 152.476C63.6649 152.428 63.2089 152.411 62.7504 152.425C62.7666 152.212 62.7494 152.009 62.6997 151.816C62.6997 151.443 62.6997 151.071 62.6997 150.698Z" fill="#3EAB36"/>
<path fill-rule="evenodd" clip-rule="evenodd" d="M62.7 151.816C62.7497 152.009 62.7669 152.212 62.7507 152.425C63.2092 152.411 63.6652 152.428 64.1187 152.476C63.6718 152.526 63.2158 152.544 62.7507 152.527C62.7031 152.295 62.6864 152.057 62.7 151.816Z" fill="#B2CDD6"/>
<path fill-rule="evenodd" clip-rule="evenodd" d="M64.98 153.035C60.8456 153.127 56.7076 153.186 52.5667 153.213C52.3523 152.982 52.3863 152.796 52.668 152.654C56.0287 152.604 59.3899 152.562 62.7507 152.527C63.2158 152.544 63.6718 152.527 64.1187 152.476C65.4299 152.47 66.7386 152.47 68.0453 152.476C68.2014 152.628 68.21 152.789 68.0707 152.959C67.0406 153.002 66.0106 153.027 64.98 153.035Z" fill="#E79780"/>
<path fill-rule="evenodd" clip-rule="evenodd" d="M75.6704 155.118C75.8001 155.112 75.9181 155.146 76.025 155.219C76.1993 156.196 76.6726 156.992 77.4437 157.607C78.4793 158.317 79.6279 158.732 80.889 158.852C82.372 159.03 83.816 158.869 85.221 158.369C85.4343 158.421 85.5017 158.556 85.4237 158.775C85.405 158.822 85.3796 158.864 85.3477 158.902C83.5632 159.525 81.7392 159.661 79.8757 159.309C78.6911 159.071 77.6443 158.563 76.7344 157.785C76.0017 157.086 75.6045 156.231 75.5437 155.219C75.5939 155.19 75.6364 155.157 75.6704 155.118Z" fill="#E79780"/>
<path fill-rule="evenodd" clip-rule="evenodd" d="M86.3107 157.607C89.3319 158.538 92.338 159.511 95.3294 160.528C98.269 161.562 101.208 162.594 104.145 163.627C104.35 163.715 104.553 163.808 104.753 163.906C102.009 165.381 99.3234 166.948 96.6974 168.605C92.3309 171.446 87.9903 174.325 83.676 177.241C76.951 181.789 70.3983 186.573 64.0174 191.592C63.8111 191.104 63.6678 190.596 63.5867 190.068C63.384 182.161 63.2067 174.253 63.0547 166.345C64.5428 165.73 66.0374 165.121 67.5387 164.516C70.6876 165.451 73.905 165.85 77.1907 165.71C77.2353 165.673 77.2692 165.631 77.292 165.583C79.1034 165.618 80.8595 165.321 82.5614 164.694C85.1636 163.684 86.5316 161.779 86.6654 158.979C86.6912 158.481 86.5731 158.024 86.3107 157.607Z" fill="#83AA80"/>
<path fill-rule="evenodd" clip-rule="evenodd" d="M120.46 163.754C120.55 164.259 120.617 164.767 120.663 165.278C120.69 166.874 120.116 168.204 118.94 169.266C117.291 170.646 115.399 171.171 113.265 170.84C111.422 170.33 110.13 169.187 109.389 167.411C109.214 166.78 109.121 166.137 109.111 165.481C109.135 165.003 109.185 164.529 109.263 164.059C110.001 161.134 111.876 159.644 114.887 159.588C117.716 159.684 119.574 161.072 120.46 163.754Z" fill="#FE8D68"/>
<path fill-rule="evenodd" clip-rule="evenodd" d="M298.705 166.751C297.438 166.738 296.171 166.696 294.905 166.624C294.825 166.588 294.749 166.546 294.677 166.497C294.522 166.229 294.514 165.958 294.652 165.684C294.747 165.69 294.764 165.664 294.703 165.608C294.798 165.501 294.916 165.433 295.057 165.405C296.054 165.403 297.051 165.428 298.047 165.481C300.562 165.463 303.044 165.183 305.495 164.643C308.06 164.011 310.391 162.91 312.487 161.341C312.705 161.252 312.924 161.252 313.145 161.341C313.483 161.659 313.533 162.014 313.297 162.408C311.815 163.479 310.228 164.359 308.535 165.049C305.349 166.171 302.073 166.739 298.705 166.751Z" fill="#EF9F8A"/>
<path fill-rule="evenodd" clip-rule="evenodd" d="M162.057 191.338C148.424 191.633 134.795 191.955 121.169 192.303C103.368 192.692 85.5673 193.098 67.7666 193.523C66.8546 193.595 66.0272 193.375 65.2839 192.862C66.1716 192.099 67.0836 191.363 68.0199 190.652C69.2699 189.704 70.5193 188.756 71.7693 187.808C80.7459 181.281 89.9165 175.032 99.2813 169.062C101.639 167.618 104.054 166.263 106.527 164.998C106.645 164.914 106.746 164.812 106.831 164.694C107.598 164.919 108.358 165.182 109.111 165.481C109.121 166.137 109.213 166.781 109.389 167.411C110.13 169.187 111.422 170.33 113.265 170.84C115.399 171.171 117.291 170.646 118.94 169.266C120.115 168.204 120.689 166.874 120.663 165.278C121.776 164.821 122.891 164.364 124.007 163.906C124.031 164.151 124.133 164.362 124.311 164.541C137.43 172.726 150.012 181.658 162.057 191.338Z" fill="#83AA80"/>
<path fill-rule="evenodd" clip-rule="evenodd" d="M77.2919 165.583C77.2691 165.631 77.2352 165.674 77.1906 165.71C73.9049 165.85 70.6875 165.452 67.5386 164.516C66.0374 165.121 64.5427 165.73 63.0546 166.345C61.1197 167.08 59.1437 167.681 57.1266 168.148C56.4629 168.268 55.8042 168.378 55.1506 168.478C55.0493 168.478 54.9479 168.478 54.8466 168.478C54.8041 168.86 54.7199 169.232 54.5933 169.596C53.0677 174.428 51.8264 179.339 50.8693 184.328C50.614 184.501 50.4367 184.442 50.3373 184.15C51.3613 178.892 52.6786 173.701 54.2893 168.58C53.207 168.635 52.1263 168.635 51.0466 168.58C51.0253 168.466 50.9919 168.356 50.9453 168.25C50.9422 168.163 50.9762 168.095 51.0466 168.046C53.9463 168.149 56.7836 167.776 59.5586 166.929C62.0443 166.14 64.4763 165.217 66.8546 164.16C66.8951 164.08 66.9205 163.996 66.9306 163.906C66.9793 163.836 67.0466 163.802 67.1333 163.805C70.4048 164.839 73.7574 165.305 77.1906 165.202C77.2808 165.31 77.3147 165.437 77.2919 165.583Z" fill="#E79780"/>
<path fill-rule="evenodd" clip-rule="evenodd" d="M55.1502 168.478C55.1776 168.481 55.1948 168.498 55.2009 168.529C55.06 168.774 54.9334 169.028 54.8209 169.291C54.7484 169.432 54.6724 169.533 54.5929 169.596C54.7196 169.232 54.8037 168.86 54.8462 168.478C54.9476 168.478 55.0489 168.478 55.1502 168.478Z" fill="#D4E7EB"/>
<path fill-rule="evenodd" clip-rule="evenodd" d="M9.49994 180.467C9.47172 182.839 9.51393 185.21 9.62661 187.579C9.90963 192.825 11.0074 197.888 12.9199 202.768C15.413 208.435 18.9006 213.405 23.3826 217.678C25.7642 219.838 28.3482 221.709 31.1346 223.291C31.4675 223.548 31.7799 223.836 32.0719 224.155C32.3061 224.541 32.3061 224.931 32.0719 225.323C30.6849 226.917 29.2241 228.45 27.6893 229.921C19.2775 238.025 10.7993 246.043 2.25461 253.975C1.49461 253.975 0.734609 253.975 -0.0253906 253.975C-0.0253906 228.304 -0.0253906 202.632 -0.0253906 176.962C2.40254 176.237 4.86831 175.67 7.37194 175.26C7.9124 175.226 8.45281 175.226 8.99328 175.26C9.40839 175.353 9.58572 175.616 9.52528 176.047C9.5497 177.521 9.54129 178.994 9.49994 180.467Z" fill="#457E84"/>
<path fill-rule="evenodd" clip-rule="evenodd" d="M20.9 174.117C20.9565 173.945 21.041 173.792 21.1534 173.66C21.5052 173.53 21.6488 173.649 21.584 174.015C20.4408 177.347 19.5035 180.734 18.772 184.175C18.7035 184.247 18.6191 184.28 18.5187 184.277C18.3551 184.257 18.2706 184.164 18.2654 183.998C18.9474 180.644 19.8256 177.351 20.9 174.117Z" fill="#E79780"/>
<path fill-rule="evenodd" clip-rule="evenodd" d="M48.0069 190.932C48.1437 190.93 48.2703 190.964 48.3869 191.033C48.4207 191.118 48.4207 191.202 48.3869 191.287C45.4545 196.31 41.3758 200.078 36.1509 202.59C34.873 203.184 33.5557 203.684 32.1989 204.089C31.967 204.019 31.891 203.867 31.9709 203.632C38.8937 201.388 44.239 197.155 48.0069 190.932Z" fill="#E79780"/>
<path fill-rule="evenodd" clip-rule="evenodd" d="M50.135 217.551C50.0913 217.611 50.0406 217.67 49.983 217.729C49.7635 217.763 49.5439 217.763 49.3244 217.729C46.8107 217.323 44.4293 216.536 42.1804 215.366C41.0443 214.772 39.9635 214.086 38.9377 213.309C38.8266 212.98 38.9448 212.828 39.2924 212.852C42.4889 215.246 46.0694 216.719 50.0337 217.271C50.0826 217.359 50.1164 217.452 50.135 217.551Z" fill="#E69881"/>
</g>
<defs>
<clipPath id="clip0_573_2486">
<rect width="380" height="254" fill="white"/>
</clipPath>
</defs>
</svg>
