<svg width="552" height="1033" viewBox="0 0 552 1033" fill="none" xmlns="http://www.w3.org/2000/svg">
<path d="M314.263 406.322C297.133 495.586 114.514 468.534 114.514 468.534L115.522 219.063L117.536 182.998C118.474 162.877 128.734 146.809 141.196 134.588C167.854 108.435 206.942 98.9033 243.38 107.868C273.806 115.356 287.026 131.129 291.59 138.208C293.166 140.65 295.094 142.81 297.07 144.954C332.675 183.575 317.934 368.217 315.267 398.326C315.031 401.009 314.77 403.674 314.263 406.322ZM431.869 209.308C402.631 10.3675 268.607 0.12146 237.479 0.464905C232.526 0.519897 227.587 0.485535 222.641 0.272583C2.94537 -9.16974 0 228.166 0 228.166V877.431C0 886.406 7.55094 893.698 16.6162 893.262C16.6614 893.259 16.7031 893.255 16.7447 893.255C19.3844 893.111 22.0276 893.111 24.6673 893.111H83.741C92.1811 893.193 98.7317 892.032 103.452 890.683C108.954 889.113 112.861 884.314 113.132 878.657L113.507 870.785L115.001 573.948C210.412 580.887 301.308 559.9 301.308 559.9C474.069 525.139 431.869 209.308 431.869 209.308Z" fill="#414141"/>
<path d="M515.165 690.495C475.387 740.762 354.27 757.655 337.402 759.793L339.463 769.205C339.463 769.205 385.458 986.062 389.299 1001.54C393.176 1017.06 380.428 1017.4 380.428 1017.4L321.302 1030.19C307.368 1034.78 303.386 1030.02 301.815 1022.88C300.942 1018.88 300.138 1011.75 299.3 1007.78L251.822 786L189.639 495.53C183.178 465.26 183.841 433.817 192.747 404.168C202.107 372.932 215.902 357.452 222.642 351.384C225.191 349.109 227.706 346.764 229.976 344.213C258.753 312.115 319.277 298.842 319.277 298.842L315.239 388.188C310.944 390.187 309.393 391.135 305.796 393.859C288.753 406.96 278.835 427.198 277.822 448.504C275.552 496.151 294.341 564.828 294.341 564.828L320.429 683.048C407.041 675.187 441.545 645.089 441.545 645.089C472.593 625.128 463.303 572.689 460.439 557.864C459.95 555.313 459.566 552.761 459.182 550.141C453.909 515.354 423.21 409.339 423.21 409.339C424.384 411.156 435.678 311.874 435.678 311.874C482.93 335.559 495.503 358.659 499.484 366.381C500.742 368.795 501.828 371.839 502.837 373.966C504.545 377.559 543.803 511.01 546.841 539.798C547.505 546.28 548.238 552.761 549.356 559.174C563.675 640.883 515.165 690.495 515.165 690.495Z" fill="#3EAB36"/>
<rect x="247.337" y="753.062" width="88.9506" height="286.485" rx="9" transform="rotate(-11.5355 247.337 753.062)" fill="#3EAB36"/>
</svg>
