<svg width="1534" height="233" viewBox="0 0 1534 233" fill="none" xmlns="http://www.w3.org/2000/svg">
<path d="M368.109 232.378C350.194 232.378 333.665 229.506 318.522 223.76C303.379 218.014 290.156 209.928 278.852 199.501C267.762 188.861 259.124 176.518 252.939 162.473C246.754 148.429 243.661 133 243.661 116.189C243.661 99.378 246.754 83.9499 252.939 69.905C259.124 55.8602 267.762 43.6241 278.852 33.1969C290.156 22.5569 303.379 14.3641 318.522 8.61843C333.665 2.87281 350.194 0 368.109 0C386.238 0 402.767 2.87281 417.696 8.61843C432.839 14.3641 445.955 22.5569 457.046 33.1969C468.136 43.6241 476.774 55.8602 482.959 69.905C489.357 83.9499 492.556 99.378 492.556 116.189C492.556 133 489.357 148.535 482.959 162.793C476.774 176.837 468.136 189.073 457.046 199.501C445.955 209.928 432.839 218.014 417.696 223.76C402.767 229.506 386.238 232.378 368.109 232.378ZM368.109 180.029C376.64 180.029 384.531 178.54 391.783 175.561C399.247 172.581 405.646 168.325 410.978 162.793C416.523 157.047 420.789 150.237 423.774 142.364C426.974 134.49 428.573 125.765 428.573 116.189C428.573 106.4 426.974 97.6755 423.774 90.0147C420.789 82.1411 416.523 75.4379 410.978 69.905C405.646 64.1594 399.247 59.797 391.783 56.8178C384.531 53.8386 376.64 52.349 368.109 52.349C359.578 52.349 351.58 53.8386 344.115 56.8178C336.864 59.797 330.465 64.1594 324.92 69.905C319.588 75.4379 315.323 82.1411 312.124 90.0147C309.138 97.6755 307.645 106.4 307.645 116.189C307.645 125.765 309.138 134.49 312.124 142.364C315.323 150.237 319.588 157.047 324.92 162.793C330.465 168.325 336.864 172.581 344.115 175.561C351.58 178.54 359.578 180.029 368.109 180.029Z" fill="#F2F2F7"/>
<path d="M1319.66 227.91V4.46881H1382.04V135.66L1474.5 4.46881H1534V227.91H1471.62V97.0371L1379.48 227.91H1319.66Z" fill="#F2F2F7"/>
<path d="M1159.61 227.91V40.5385L1173.69 54.5834H1090.83V4.46881H1290.46V54.5834H1207.92L1221.99 40.5385V227.91H1159.61Z" fill="#F2F2F7"/>
<path d="M890.38 177.795C902.964 181.413 913.201 182.583 921.092 181.306C929.197 179.817 936.342 174.497 942.527 165.346L953.404 149.386L958.842 143.321L1028.58 4.46881H1090.33L997.552 177.157C988.381 194.181 977.397 207.374 964.601 216.738C952.017 226.101 938.154 231.421 923.012 232.698C907.869 233.974 891.98 231.208 875.344 224.398L890.38 177.795ZM957.883 194.074L855.509 4.46881H922.372L992.434 149.386L957.883 194.074Z" fill="#F2F2F7"/>
<path d="M619.526 227.91V4.46881H829.711V227.91H767.007V40.5385L781.084 54.5834H668.153L681.91 40.5385V227.91H619.526Z" fill="#F2F2F7"/>
<path d="M0 227.91V4.46881H210.185V227.91H147.482V40.5385L161.558 54.5834H48.6273L62.3837 40.5385V227.91H0Z" fill="#F2F2F7"/>
</svg>
